<svg xmlns="http://www.w3.org/2000/svg" width="604.275" height="70" viewBox="0 0 604.275 70">
  <path id="Path_162" data-name="Path 162" d="M229.469-133.146q-2.863,0-4.05,1.134a4.984,4.984,0,0,0-1.19,3.734,5.336,5.336,0,0,0,1.1,3.6q1.1,1.264,4.144,1.264a6.446,6.446,0,0,0,4.087-1.078q1.337-1.077,1.338-3.79a4.789,4.789,0,0,0-1.264-3.771A6.322,6.322,0,0,0,229.469-133.146ZM289.6-78.676h9.586v-38.976H289.6Zm-19.395-35.3a16.765,16.765,0,0,0-5.165-3.437,15.218,15.218,0,0,0-6.167-1.356,15.535,15.535,0,0,0-8.936,2.508,15.531,15.531,0,0,0-5.61,7.1,27.361,27.361,0,0,0-1.913,10.607q0,9.624,4.087,14.751a13.566,13.566,0,0,0,11.22,5.127,16.417,16.417,0,0,0,11.481-4.347v3.2q0,4.049-2.323,5.759t-8.266,1.709a29.156,29.156,0,0,1-12.447-2.824l-2.823,7.84A33.1,33.1,0,0,0,258.618-64Q269.207-64,274-67.808t4.792-11.611v-38.233h-7.319Zm-1,23.036a14.052,14.052,0,0,1-9.214,3.827,6.654,6.654,0,0,1-5.555-2.823Q252.3-92.757,252.3-98.7a13.63,13.63,0,0,1,2.415-8.435,7.193,7.193,0,0,1,5.908-3.2,12.689,12.689,0,0,1,8.583,3.493ZM224.75-78.676h9.586v-38.976H224.75Zm453.058-17a11.679,11.679,0,0,0-4.309-4.013,40.252,40.252,0,0,0-9.493-3.251,19.67,19.67,0,0,1-5.425-1.913,2.79,2.79,0,0,1-1.375-2.434,3.054,3.054,0,0,1,1.523-2.619,8.1,8.1,0,0,1,4.5-1.022q5.8,0,8.36,3.939l7.17-5.09a13.117,13.117,0,0,0-6.149-5.016,23.756,23.756,0,0,0-9.233-1.672q-7.691,0-11.648,3.344a10.651,10.651,0,0,0-3.957,8.508,10.887,10.887,0,0,0,3.159,8.1q3.157,3.121,10.923,4.83a31.942,31.942,0,0,1,6.056,1.95,2.944,2.944,0,0,1,1.932,2.694q0,3.977-6.837,3.976a14.694,14.694,0,0,1-4.886-.8,8.536,8.536,0,0,1-4.031-3.177l-7.134,5.016q4.423,6.8,16.647,6.8a21.723,21.723,0,0,0,8.192-1.449,12.158,12.158,0,0,0,5.537-4.2,11.135,11.135,0,0,0,1.95-6.614A11.086,11.086,0,0,0,677.808-95.675ZM110.53-134H75v11.843h35.53a17.765,17.765,0,0,1,17.765,17.764A17.765,17.765,0,0,1,110.53-86.626H86.843v11.844H110.53a29.609,29.609,0,0,0,29.608-29.609A29.608,29.608,0,0,0,110.53-134Zm95.14,6.538Q200.3-130.1,191.2-130.1h-15.53v51.422h15.679q9.363,0,14.528-2.564a16.36,16.36,0,0,0,7.728-8.211q2.564-5.647,2.564-14.937,0-9.251-2.564-14.843A16.567,16.567,0,0,0,205.67-127.461Zm-1.653,32.994a8.5,8.5,0,0,1-4.477,4.774q-3.14,1.43-9.344,1.431h-4.013v-32.251H190.2q6.2,0,9.363,1.412a8.359,8.359,0,0,1,4.477,4.663q1.319,3.251,1.319,9.976Q205.354-97.81,204.018-94.467Zm-87.566-9.923a5.921,5.921,0,0,0-5.922-5.922H80.922v11.843H110.53A5.922,5.922,0,0,0,116.452-104.39ZM556.961-91.606Q550.979-86,546.707-86a5.235,5.235,0,0,1-3.214-.836,5.043,5.043,0,0,1-1.58-3.028,31.284,31.284,0,0,1-.483-6.316v-21.476h-9.586v26.046q0,6.763,2.637,10.422t9.252,3.66a16.473,16.473,0,0,0,7.041-1.728,20.013,20.013,0,0,0,6.186-4.441v5.016h9.586v-38.976h-9.586Zm-72.3,0Q478.675-86,474.4-86a5.237,5.237,0,0,1-3.214-.836,5.043,5.043,0,0,1-1.58-3.028,31.339,31.339,0,0,1-.483-6.316v-21.476h-9.586v26.046q0,6.763,2.637,10.422t9.252,3.66a16.474,16.474,0,0,0,7.041-1.728,20.026,20.026,0,0,0,6.187-4.441v5.016h9.587v-38.976h-9.587Zm-190.334-41.54q-2.862,0-4.05,1.134a4.983,4.983,0,0,0-1.189,3.734,5.335,5.335,0,0,0,1.1,3.6q1.1,1.264,4.144,1.264a6.445,6.445,0,0,0,4.087-1.078q1.337-1.077,1.338-3.79,0-2.675-1.264-3.771A6.322,6.322,0,0,0,294.324-133.146Zm297.9,16.646a25.039,25.039,0,0,0-5.276,4.421v-5.573h-9.586v38.976h9.586v-25.34a22.348,22.348,0,0,1,4.923-3.734,10.607,10.607,0,0,1,5.072-1.282,8.86,8.86,0,0,1,3.938.743l1.9-9.177a8.483,8.483,0,0,0-4.236-.78A11.766,11.766,0,0,0,592.221-116.5ZM420.528-78.676h10.478v-21.476h18.949V-109.4H431.006v-11.109H453.6V-130.1H420.528Zm99.166-6.763a4.032,4.032,0,0,1-3.214-1.3q-1.134-1.3-1.133-4.942v-18.354h9.066v-7.617h-9.066V-128.5h-9.586v10.849H500.82v7.617h4.941v19.581q0,6.836,2.973,9.883t9.734,3.047a28.378,28.378,0,0,0,8.137-1.152l-1.671-7.84A13.569,13.569,0,0,1,519.695-85.439ZM381.664-78.676h9.586V-134h-9.586ZM623.8-118.767q-18.725,0-18.726,20.918,0,10.218,4.737,15.271t14.36,5.053q6.465,0,10.2-1.672a14.426,14.426,0,0,0,6.075-5.053l-7.133-5.09a7.944,7.944,0,0,1-3.734,2.713,15.823,15.823,0,0,1-4.961.706q-4.866,0-7.133-2.267t-2.526-7.469h25.9v-4.718q0-8.991-4.365-13.692T623.8-118.767Zm-8.583,16.5a16.435,16.435,0,0,1,1.542-5.406,6.531,6.531,0,0,1,2.62-2.6,8.88,8.88,0,0,1,4.2-.873q7.764,0,7.766,8.88ZM325.783-85.439a4.031,4.031,0,0,1-3.214-1.3q-1.135-1.3-1.133-4.942v-18.354H330.5v-7.617h-9.066V-128.5H311.85v10.849h-4.942v7.617h4.942v19.581q0,6.836,2.972,9.883t9.735,3.047a28.376,28.376,0,0,0,8.136-1.152l-1.672-7.84A13.564,13.564,0,0,1,325.783-85.439Zm41.335-30.151q-4.032-3.177-13.135-3.177A26.147,26.147,0,0,0,343.84-117a12.532,12.532,0,0,0-6.167,5.072l7.468,4.793a7.07,7.07,0,0,1,3.325-2.973,12.712,12.712,0,0,1,5.369-1.04,11.159,11.159,0,0,1,5.76,1.207q1.969,1.208,1.969,4.478v1.746l-8.211.78a31.048,31.048,0,0,0-9.568,2.173,11.328,11.328,0,0,0-5.016,4.255,12.784,12.784,0,0,0-1.691,6.874,11.977,11.977,0,0,0,3.307,8.713q3.306,3.4,9.772,3.4,6.5,0,12.186-5.2v4.05h8.806v-26.491Q371.149-112.413,367.118-115.59ZM361.563-89.34a20.7,20.7,0,0,1-4.924,3.1,11.041,11.041,0,0,1-4.254,1.1,7.03,7.03,0,0,1-3.938-.984q-1.487-.984-1.486-3.66a5.126,5.126,0,0,1,2.285-4.57q2.285-1.522,7.449-1.969l4.868-.446Z" transform="translate(-75 134)" fill="#fff"/>
</svg>
